<mxfile host="app.diagrams.net" modified="2021-10-06T21:14:56.008Z" agent="5.0 (Macintosh; Intel Mac OS X 10_15_7) AppleWebKit/537.36 (KHTML, like Gecko) Chrome/92.0.4515.159 Safari/537.36 OPR/78.0.4093.231" etag="0I1Kwsz2l-RErwiwjVfl" version="15.3.7" type="github">
  <diagram id="TSc8M2aQanpHi99RWJcm" name="Page-1">
    <mxGraphModel dx="1121" dy="555" grid="0" gridSize="10" guides="1" tooltips="1" connect="1" arrows="1" fold="1" page="1" pageScale="1" pageWidth="850" pageHeight="1100" math="0" shadow="0">
      <root>
        <mxCell id="0" />
        <mxCell id="1" parent="0" />
        <mxCell id="5Attr23UrhzsccXN82fq-41" value="VPC" style="outlineConnect=0;gradientColor=none;html=1;whiteSpace=wrap;fontSize=12;fontStyle=0;shape=mxgraph.aws4.group;grIcon=mxgraph.aws4.group_vpc;strokeColor=#879196;fillColor=none;verticalAlign=top;align=left;spacingLeft=30;fontColor=#879196;dashed=0;" parent="1" vertex="1">
          <mxGeometry x="217" y="1397" width="204" height="285" as="geometry" />
        </mxCell>
        <mxCell id="5Attr23UrhzsccXN82fq-1" value="" style="rounded=1;arcSize=10;dashed=0;fillColor=none;gradientColor=none;strokeWidth=2;" parent="1" vertex="1">
          <mxGeometry x="199" y="1346.76" width="235" height="351.24" as="geometry" />
        </mxCell>
        <mxCell id="5Attr23UrhzsccXN82fq-57" value="" style="rounded=1;arcSize=10;dashed=0;fillColor=none;gradientColor=none;strokeWidth=2;" parent="1" vertex="1">
          <mxGeometry x="257" y="1482.5" width="138" height="154.5" as="geometry" />
        </mxCell>
        <mxCell id="5Attr23UrhzsccXN82fq-34" value="IBM Cloud - Dalas" style="shape=mxgraph.ibm.box;prType=cloud;fontStyle=0;verticalAlign=top;align=left;spacingLeft=32;spacingTop=4;fillColor=none;rounded=0;whiteSpace=wrap;html=1;strokeColor=#4376BB;strokeWidth=3;dashed=0;container=1;spacing=-4;collapsible=0;expand=0;recursiveResize=0;" parent="1" vertex="1">
          <mxGeometry x="441" y="1346.76" width="167" height="352.24" as="geometry" />
        </mxCell>
        <mxCell id="5Attr23UrhzsccXN82fq-40" value="Back-end" style="shape=image;verticalLabelPosition=bottom;labelBackgroundColor=#ffffff;verticalAlign=top;aspect=fixed;imageAspect=0;image=https://pbs.twimg.com/profile_images/1151235235968716800/VJI_bxtd_400x400.jpg;" parent="5Attr23UrhzsccXN82fq-34" vertex="1">
          <mxGeometry x="54.050000000000004" y="178.79" width="58.9" height="58.9" as="geometry" />
        </mxCell>
        <mxCell id="5Attr23UrhzsccXN82fq-39" value="Tone Analyzer" style="shape=image;verticalLabelPosition=bottom;labelBackgroundColor=#ffffff;verticalAlign=top;aspect=fixed;imageAspect=0;image=data:image/png,iVBORw0KGgoAAAANSUhEUgAAAOEAAADhCAMAAAAJbSJIAAAAYFBMVEW4lfH///+zjfC3k/G0j/C9nPLp3/rj1vmzjPC1j/D59/7k2Pm+n/Lx6vy5l/HYxvfJr/T07/3s5PvBo/PMtPX28v3dzfjFqfPRvPbPufXUwPbHrPT8+v7g0vnbyvjv5/xLsM1eAAAPyklEQVR4nNWdiZaqOBCGIQlKRBFFRRDb93/LSyouQHZI0PufMzNnum3NZ8hSSypRHFybwzG7NHVRldskyaMoT7Zleaubv2y127TBPz4K+ebn1d9pG1FCCO4UReyfiP+n+//uxxThpNhnh5CNCEV4zq4lQR1axKnU6kgR2tbrUJghCA/3U04JNqGNOGlUXHYBWuOdcHWKEHGCe0NigvJ65XtkeiVss4I49p1ISar7xmejPBIC3gy6NyVB1dpfT/oi3NV+8F6Q9HT01DIvhO1li/zhPSFRcvHRNh+Eh2tKPONxEVR7WEJmEz4KSoPwMWF0e3yZ8Fimvh/PEWNazRyQswh3lffhJ2Ek5ax+nEF4KAL335sxvc3Y7EwmbK8L9N+bEdWTdwFTCS80zPypEiV/ixIec4/Lu6VItFqOsEZL44HQaSHCFQ63AOpFabYAYXtacIYZC6PCeUvuSpjNMo48MGLX0ehIWH+xA59CTUDCc7LsEiEXLZ3WRhfC9fJLhFSYujypDoTX9NtoL+F0H4CwLb+1RshEbt4Jz/lvPKEv0cR2MFoSHn9kCH6EsaW9YUe4/v4iIcpyvrEi/PuZOWag9O6LcP+djbZZqY1FZUHY/Cqg3f7GTHj9pVViLAtEI+FPA9ogmgib3wa0QDQQ/uwk8xEyTDd6wsvvAxoXDS1h9pvr4FipdunXER7/hx5koroNnIbw8ItbNbmoZhuuJmy/3WwH4WQKYfnf9GAnqrYXlYT1L7hk7EWUVr+K8P6/zDIvKSdUBeFuEUDMEsLMsso+wlgx2ygIl8AjtGru2cqs9V8RUSMjLl0Ii+C7UYyqzMVBf7wa0wUUQ1FKuA7+jCL3qG7bmELOSBrxlxFuQvcgJuvPhxn17updYkDMbQmrwCshzvmkcP67RSkyKkXJ6ZkFdtIvYVQWYJQQXgJ3IU6gububfZYfJuQKf3TVIyLJkiESboIPQuhB46gaifDo6En7VxjbEIZ+RgnMMZXzlukZrNhqm0drM+E68G6Nz+mTgiDgsDjoHzEkzNECYWj3PVgBxbSvMWVT8F77t3hrIjQM5dmCdWKq7wATNoT12xsy9mmMCA+B/RYYPi+f+ucwzPaGyabVEoaeZui1+5D79OeEnrtlVD+GyVVHuAq9UlC2sZLY1li6Moo/g9wvg21OzhrC7dSW24q00gUX40rEIdtSGHK4ik1zTYRPasIsuEnBZtKV0EBcxOJaTroVfid0LZW+wVDpQUmYzGy/UdAFF6GBFD59CINhOAlDFrGBaBhL+KYiDN+F8Nl/AmEiGSJ81n+Mm0QfnR1lmvAHy36fcPIkbi14HMVhhNgyN7LZ4KXitwFTlYkQHhUJYfguVBHi8hxvxjMk7abNldAkK8LBSOwRLuAgVRBGGEXibrEzrsRX2hH2p9MP4RJRChXhZ+nDzLGm+artCCOykRCG3s4wqQn5rymtmsvftVQnkdsSNiLheYlImp6QVi8TvV2rsiAtCZ8L0IBwkXi9jnCUG6sIztoSfnxdb8JFcn81hIJD9yB9B1vCz9u9CLNFAjGameZpuWZ1UVx5Zx5khqAt4WfVfxEuE0tTEj6jDnvEZlJKI/A6HSUDx5qQNkNC01bPk5SE3JFWvn+TgkepFr92a8K32+1JaDBIfElJCDvTvnsKrHmJ892a8J26+CQMblVwqQhhmz38ecpQCqET7Qlf+xpOuEy4UE3InBPtcGKByVDcKtsTgrX9Jlwqt0tFmEhmc2YJHmYRrnqE4e0mLpVtwaydq8TGb+cQPh/TiK88E1vsKhUhM4wFLwY7rD5jHL5mUyAU/QqBpCLMJZMde+1OdHg8rAn5t8EJlzArQEr7sMpuon1YNeJWEh0cCJsXYbtY6ox6TyMLl8i2ytRle7J9EZq8c/5ksA8t3qByaW+6eRLOWit4OSRLoRtsPulkQwamH+v2sukYCKd7ujFJ89v1srYWW6JW+6YutmjSYXBIQrRuL/hcoxmpF5RW92GMwEHtcZ84xypht2qIkfaVcMKJw5CQZjLeU4+TWzAfw0ZMYnGoxLo8mjjyMWl8lAE6Fy47YsjOc8mkYPZFNG01JNtX/z3+TqzSnJO25eld1uuYWw+SFEryiAunppl7IJwwDNEzCvmoU9eyZSCYf69PyJNlAyCK75YWylanaIp5j3is/FjOygTHqOKMVkfjSA41XA5OQ4oF1aMJE00KLofWcZqQNSDlz8JFj4hxt7LwolFnx4/s1vxIEuwyiPfgMfJhkJDkwHuxn8jWaxB7mnFeNc+sw53z8nLsCPV5VJJGQcqPr8MmmEDjD319wqK4bNvelO2emk3uHaHjjoa7Wv2dpsFIrJH0ds+k/VDno3Rf1jrzIoqNxSlHf8OWiYfHIAcmwsbhRdjPplxNqknV2daR454N0j1ar/YkPw6yebz13oJAjGz3OGb7ampFvySOdk6EPKfJZdG1EOT4tCmiL71+zr7NXdr9YHKyHcZx5LZYgPXiPa8IgtKKBAZ9tqVRdBO5pWAR+NBZnykReKKE4QIJv3OTC+gu2ru8Ba5DdOHT+zJycPOEirnvTFbR2E2pFcQCRFf7bIHPaOQSpoy6metgIVnk1F5mn4XwW4Frsx08GxCJP8/+LHKJKpeGsNVeNzVJXWYWv+OPaT+GiYmfSZvuI5e5CvweGj8QKS/K39LrvdL8Jdvr9gcMZT84zt9Y4CZyCVlAO9TfKwQKRDc1CPzP6mwIGIi9aZ0HvT3E/HDt9HKI5qjXCr79kg5sPjFu1Jk0t+Hzn7LNqo9gAz45vRzsAPUXywmljiKeh6fe7cEI/8Tt4eVi4GmCcOH0cuhDdTklXp5S/mvYYmp2F+yp/Gwg4buqvRC6zKRGwm407Vaq82V5tvvTbBUGhGCCeopLl06vNhFGVOPI1v1uRAin7Dzlv7jNVkbC6eoTwqK0QLarRAsRMqNi42iYK5W7rYcLEeKk8JZZkDs9p0sRyoOj05Q47dqMhBipT1xT7WHsEaE34cRpNjURsnVbZY11uwWdvzoUYcfnsiKaCNnvFUEC2LZpLLVghJWTfWhDqDjuAfswjTEU7CktIod4o5mQBTQU2ctsjdOMiGCEddT4JGSeOHk4EvKuNQTBCJvIJTBjnGlOUq8gEzv4owvAhyIkf5HL2W3japGrjECw/3T2XjDCtZNH2Lzzfij8Y5BXrvOzBiNcOXn1zSv+SW4hgt9ee+woFCHdOUVmzLs28M/vxl41UhrNoWCEG6fompmQ+2OOw4RmDqj3ugQiZJEZlyiExc6bR4jPvRwGjOBHBpM9VB9uO0KHTY2NbcFzQuJVSQnpzHqK+Z1NphSDUH1YdIQOKVFW1hN6nqk6Z/trc3keejiYvsZAhBDldjjxZGcfErGCitnzGYpw3REqnNQyWVrAJB+W+nlo3PkvBSIkO5b1Ze+1A0IbpwDN968sivPFJnMKPMLC0fT5SiGvzX4yhe2z3csJisriVFS53YWWbtnN9toCob39pLEdRGGMtWeWhy+u9S7xiWJvG7nUTQJHZpDjtG752/ZvuwZC+3Q/GC1BCknBlt3/sQ9y4Jns9q47Fow2FMCZJhTrDeRpguyfSO8gGgninDMzXKRNqWP5odiZb3t7EtpHImEgBjglBTUdnbJCrASjOzJvinviORPeD7bzfEf/5+XB7oY8NXsDCrxpzjm3JsGJWP8zGE/Cg3/ZJ9HyDALfLYEQuP+jyNzjAIQOm284Vu65DApUWPO/3PMHjhM6pTmxP3BKhjMJ8i78D+5XCRd+DthhreW2kaFUqot45r/nlFWmZy0lTujyiCBo0cTajmIz+N0NfyEcifceoVNVVgJuCT/3BGJ+pDxIrT+06RE6bgkhMyjzcFs1qjbBAF8Fv56Ea6c8Wgy9OPfQDKY5v1Z0ZS5HPkGvGjxPQscMq2dVjUOtTanUCLOK7M9rU3WJRDNE2wGh48kZ/Lqhp83qvJdkzzR4I5pKhco6e56y2Fg4caaIbyN6hK6LOEk+R10Ou89ZicegmCMx3m67D3URCnl5w951opw3TURxrXs/S7SQvuKt9hIFOyj/rs/+JnS3iTDaSg86974rxXUFoE12mn5SxNy49y1Qb0JjQUmZCElO9+Puc+yMEffmfnrKpLr/1dup53zslG4EQpcj0n11kyLt1cBnb9xbXDGVasrJWrdWfc6EfQgdjrkb3tnBix5KvQqmvdqXXja/8Nauhza9q1/AtEf48NKJ7L2DX5BhUv8uj34NWi9ZufDmsw/zzNOgQmGf0E/cAM7UffcG9sEts4Na0F48oXDaJYBPwl7DIpMDQi/+F16AaqESd1INbyoZ1mT3EjmAZIXg9evVGtUJHRL6OeMAHqDvXUw3Ov4+uhvBy0oGdXKWKlQoaFRWf0yoPnvlIjhN+K1lf3zb4/iOEi8ee35y+TuXmAp3kwn3zHj5GHDyuuTm+pNwH5JA6GUS5NOZr2MvLhLvtBLve/JyVBvCG4uVY/xI4lUQCT2d1WZvtVTR0I+IWJ5Lcu+al0AehfISS3ciXYs4srvzfBiK/FKihZd9LLtRVkbY+vCgQMWAZZd9TGRXkUrvsMx8NGzssgkvJPXOyu8h9REehGnN7RTuPBHZ/Y7Ku2R9zIKkOYa+xW0g6R2dSkIvtZMDOnxln3aQo6judF5/Z1c5XUiyUGgJg18T6Fnj++QsCP+vu9VVFzprCdswR5rDKFcXU1UTxucgwecQwlRTDVdDuMgNUF4kv67agtBjdcSgSsdXj9oThkoi8Cskv1PdjvDbAQgb0UaPYCCM619HlJxBciP0maMXQpJrql0JfxvR2IM2hL/8oJp70Iowbn51RkWGScaa0K7g9vJK9cuEC+GEIszhhZF2oXck/GY4UCWq26q5E0puV/6ucK4w6ScTxpsAx52mi5TWd09YE3YL4+88qchilZhAqLoadHlRuznGnTDeebktYK6I9RB0J4xjp0tTwgjJHb++COP7l10bWBZe8koYLPPcjo/cZMEXv4TsRpFvdSM2Z8Z7IYzP1aLu+rdQMeUCpimE7ETQ8hYViYQkhICEcXxd+FHFQp5MaML4cAt1FkTGh07OM8xsQnbd00KP6vtiqKUJu+Fof6PYDD5SWtpJAQjjeJ0H3gFgNI9vNiEreRVwPHbP50w+D4Rx/CjSMB1J0tOM8eeRsNsCNFNPWqqFaf7n44ZFP4SdMq8PKyaomLa+i/JF2HXkPkFelo8Or7xMXv4E+SPstNsnMzNM2Png8jL3ftOBvBJ2Ot9vZCJlR4dwsfbXe1y+CZke+9KZsuu7qLh4mDoFhSDs1D4upzxlhSFNZOwQJkHbeu3kfHFQIEJQe7w3twQjdmSUlW7r02J29SahNNremixE170VkpCrPR+zS1MXVZk88wHzpKyK03V/X+18DzqJ/gEwybToTeW5jQAAAABJRU5ErkJggg==;" parent="5Attr23UrhzsccXN82fq-34" vertex="1">
          <mxGeometry x="56.8" y="59.59" width="53.41" height="53.41" as="geometry" />
        </mxCell>
        <mxCell id="5Attr23UrhzsccXN82fq-35" style="edgeStyle=orthogonalEdgeStyle;rounded=0;orthogonalLoop=1;jettySize=auto;html=1;entryX=0.5;entryY=1;entryDx=0;entryDy=0;exitX=0.5;exitY=0;exitDx=0;exitDy=0;" parent="5Attr23UrhzsccXN82fq-34" source="5Attr23UrhzsccXN82fq-40" target="5Attr23UrhzsccXN82fq-39" edge="1">
          <mxGeometry relative="1" as="geometry">
            <mxPoint x="88.13999999999999" y="134.24" as="sourcePoint" />
            <mxPoint x="88.63999999999999" y="253.24" as="targetPoint" />
          </mxGeometry>
        </mxCell>
        <mxCell id="5Attr23UrhzsccXN82fq-51" value="" style="rounded=0;whiteSpace=wrap;html=1;rotation=-90;" parent="1" vertex="1">
          <mxGeometry x="206.62" y="1457.38" width="229.5" height="174.75" as="geometry" />
        </mxCell>
        <mxCell id="v8qC128liEodUwgJ5zLA-15" value="" style="group" parent="1" vertex="1" connectable="0">
          <mxGeometry x="185" y="39" width="660" height="817" as="geometry" />
        </mxCell>
        <mxCell id="v8qC128liEodUwgJ5zLA-13" value="" style="rounded=1;arcSize=10;dashed=0;fillColor=none;gradientColor=none;strokeWidth=2;" parent="v8qC128liEodUwgJ5zLA-15" vertex="1">
          <mxGeometry x="-2" y="30.413264614132647" width="660" height="524.6288145937881" as="geometry" />
        </mxCell>
        <mxCell id="v8qC128liEodUwgJ5zLA-14" value="" style="dashed=0;html=1;shape=mxgraph.aws3.cloud;fillColor=#F58536;gradientColor=none;dashed=0;" parent="v8qC128liEodUwgJ5zLA-15" vertex="1">
          <mxGeometry x="27.18" y="14.65" width="51.82" height="38.35" as="geometry" />
        </mxCell>
        <mxCell id="v8qC128liEodUwgJ5zLA-16" value="US East (N. Virginia) [us-east-1]" style="text;whiteSpace=wrap;html=1;" parent="v8qC128liEodUwgJ5zLA-15" vertex="1">
          <mxGeometry x="83.0021568627451" y="30.41506849315067" width="219.196862745098" height="28.153424657534252" as="geometry" />
        </mxCell>
        <mxCell id="v8qC128liEodUwgJ5zLA-21" value="DynamoDB - &lt;br&gt;Clientes" style="outlineConnect=0;dashed=0;verticalLabelPosition=bottom;verticalAlign=top;align=center;html=1;shape=mxgraph.aws3.dynamo_db;fillColor=#2E73B8;gradientColor=none;" parent="v8qC128liEodUwgJ5zLA-15" vertex="1">
          <mxGeometry x="538.9974509803923" y="399.9979452054794" width="44.68398431372548" height="50.27397260273973" as="geometry" />
        </mxCell>
        <mxCell id="v8qC128liEodUwgJ5zLA-22" value="Amazon RDS - &lt;br&gt;Catalogo de productos" style="outlineConnect=0;dashed=0;verticalLabelPosition=bottom;verticalAlign=top;align=center;html=1;shape=mxgraph.aws3.rds;fillColor=#2E73B8;gradientColor=none;" parent="v8qC128liEodUwgJ5zLA-15" vertex="1">
          <mxGeometry x="541.6674509803922" y="249.3734246575343" width="42.00938039215686" height="47.25753424657535" as="geometry" />
        </mxCell>
        <mxCell id="v8qC128liEodUwgJ5zLA-44" style="edgeStyle=orthogonalEdgeStyle;rounded=0;orthogonalLoop=1;jettySize=auto;html=1;" parent="v8qC128liEodUwgJ5zLA-15" source="v8qC128liEodUwgJ5zLA-18" target="v8qC128liEodUwgJ5zLA-21" edge="1">
          <mxGeometry relative="1" as="geometry" />
        </mxCell>
        <mxCell id="v8qC128liEodUwgJ5zLA-18" value="Lambda - clientes&amp;nbsp;&lt;br&gt;- java" style="outlineConnect=0;dashed=0;verticalLabelPosition=bottom;verticalAlign=top;align=center;html=1;shape=mxgraph.aws3.lambda;fillColor=#F58534;gradientColor=none;" parent="v8qC128liEodUwgJ5zLA-15" vertex="1">
          <mxGeometry x="366.00176470588247" y="390.9495890410958" width="53.29098039215685" height="68.37260273972603" as="geometry" />
        </mxCell>
        <mxCell id="v8qC128liEodUwgJ5zLA-45" style="edgeStyle=orthogonalEdgeStyle;rounded=0;orthogonalLoop=1;jettySize=auto;html=1;entryX=0;entryY=0.5;entryDx=0;entryDy=0;entryPerimeter=0;" parent="v8qC128liEodUwgJ5zLA-15" source="v8qC128liEodUwgJ5zLA-20" target="v8qC128liEodUwgJ5zLA-18" edge="1">
          <mxGeometry relative="1" as="geometry" />
        </mxCell>
        <mxCell id="v8qC128liEodUwgJ5zLA-46" style="edgeStyle=orthogonalEdgeStyle;rounded=0;orthogonalLoop=1;jettySize=auto;html=1;entryX=0;entryY=0.5;entryDx=0;entryDy=0;entryPerimeter=0;" parent="v8qC128liEodUwgJ5zLA-15" source="v8qC128liEodUwgJ5zLA-20" target="v8qC128liEodUwgJ5zLA-34" edge="1">
          <mxGeometry relative="1" as="geometry" />
        </mxCell>
        <mxCell id="v8qC128liEodUwgJ5zLA-47" style="edgeStyle=orthogonalEdgeStyle;rounded=0;orthogonalLoop=1;jettySize=auto;html=1;entryX=0;entryY=0.5;entryDx=0;entryDy=0;entryPerimeter=0;" parent="v8qC128liEodUwgJ5zLA-15" source="v8qC128liEodUwgJ5zLA-20" target="v8qC128liEodUwgJ5zLA-43" edge="1">
          <mxGeometry relative="1" as="geometry" />
        </mxCell>
        <mxCell id="v8qC128liEodUwgJ5zLA-20" value="Amazon API Gateway" style="outlineConnect=0;dashed=0;verticalLabelPosition=bottom;verticalAlign=top;align=center;html=1;shape=mxgraph.aws3.api_gateway;fillColor=#D9A741;gradientColor=none;" parent="v8qC128liEodUwgJ5zLA-15" vertex="1">
          <mxGeometry x="187.9966666666666" y="148.9709589041095" width="58.72062745098039" height="71.38904109589042" as="geometry" />
        </mxCell>
        <mxCell id="v8qC128liEodUwgJ5zLA-19" value="Amazon Cognito" style="outlineConnect=0;dashed=0;verticalLabelPosition=bottom;verticalAlign=top;align=center;html=1;shape=mxgraph.aws3.cognito;fillColor=#AD688B;gradientColor=none;" parent="v8qC128liEodUwgJ5zLA-15" vertex="1">
          <mxGeometry x="182.78607843137252" y="320.9968493150684" width="49.630996078431366" height="60.328767123287676" as="geometry" />
        </mxCell>
        <mxCell id="v8qC128liEodUwgJ5zLA-24" value="" style="outlineConnect=0;dashed=0;verticalLabelPosition=bottom;verticalAlign=top;align=center;html=1;shape=mxgraph.aws3.codecommit;fillColor=#759C3E;gradientColor=none;" parent="v8qC128liEodUwgJ5zLA-15" vertex="1">
          <mxGeometry x="31.999999999999993" y="482" width="37.02" height="45" as="geometry" />
        </mxCell>
        <mxCell id="v8qC128liEodUwgJ5zLA-25" value="" style="outlineConnect=0;dashed=0;verticalLabelPosition=bottom;verticalAlign=top;align=center;html=1;shape=mxgraph.aws3.codedeploy;fillColor=#759C3E;gradientColor=none;" parent="v8qC128liEodUwgJ5zLA-15" vertex="1">
          <mxGeometry x="80.09000000000003" y="482" width="38.33" height="46" as="geometry" />
        </mxCell>
        <mxCell id="v8qC128liEodUwgJ5zLA-26" value="" style="outlineConnect=0;dashed=0;verticalLabelPosition=bottom;verticalAlign=top;align=center;html=1;shape=mxgraph.aws3.codepipeline;fillColor=#759C3E;gradientColor=none;" parent="v8qC128liEodUwgJ5zLA-15" vertex="1">
          <mxGeometry x="126.41999999999996" y="482" width="38.33" height="46" as="geometry" />
        </mxCell>
        <mxCell id="v8qC128liEodUwgJ5zLA-48" style="edgeStyle=orthogonalEdgeStyle;rounded=0;orthogonalLoop=1;jettySize=auto;html=1;" parent="v8qC128liEodUwgJ5zLA-15" source="v8qC128liEodUwgJ5zLA-17" target="v8qC128liEodUwgJ5zLA-20" edge="1">
          <mxGeometry relative="1" as="geometry" />
        </mxCell>
        <mxCell id="v8qC128liEodUwgJ5zLA-54" style="edgeStyle=orthogonalEdgeStyle;rounded=0;orthogonalLoop=1;jettySize=auto;html=1;entryX=0;entryY=0.5;entryDx=0;entryDy=0;entryPerimeter=0;" parent="v8qC128liEodUwgJ5zLA-15" source="v8qC128liEodUwgJ5zLA-17" target="v8qC128liEodUwgJ5zLA-19" edge="1">
          <mxGeometry relative="1" as="geometry" />
        </mxCell>
        <mxCell id="v8qC128liEodUwgJ5zLA-17" value="Web UI - React" style="outlineConnect=0;dashed=0;verticalLabelPosition=bottom;verticalAlign=top;align=center;html=1;shape=mxgraph.aws3.elastic_beanstalk;fillColor=#F58534;gradientColor=none;" parent="v8qC128liEodUwgJ5zLA-15" vertex="1">
          <mxGeometry x="56.003333333333316" y="153.99547945205472" width="43.23607843137255" height="61.33424657534246" as="geometry" />
        </mxCell>
        <mxCell id="v8qC128liEodUwgJ5zLA-62" style="edgeStyle=orthogonalEdgeStyle;rounded=0;orthogonalLoop=1;jettySize=auto;html=1;entryX=0;entryY=0.5;entryDx=0;entryDy=0;entryPerimeter=0;" parent="v8qC128liEodUwgJ5zLA-15" source="v8qC128liEodUwgJ5zLA-34" target="v8qC128liEodUwgJ5zLA-22" edge="1">
          <mxGeometry relative="1" as="geometry" />
        </mxCell>
        <mxCell id="v8qC128liEodUwgJ5zLA-34" value="ECS - consultarCatalogo&lt;br&gt;- node.js" style="outlineConnect=0;dashed=0;verticalLabelPosition=bottom;verticalAlign=top;align=center;html=1;shape=mxgraph.aws3.ecs;fillColor=#F58534;gradientColor=none;" parent="v8qC128liEodUwgJ5zLA-15" vertex="1">
          <mxGeometry x="366.00000000000006" y="243.99999999999991" width="61.87" height="58" as="geometry" />
        </mxCell>
        <mxCell id="v8qC128liEodUwgJ5zLA-35" value="" style="rounded=1;arcSize=10;dashed=1;fillColor=none;gradientColor=none;strokeWidth=2;dashPattern=1 1;" parent="v8qC128liEodUwgJ5zLA-15" vertex="1">
          <mxGeometry x="21" y="455.35" width="214" height="82" as="geometry" />
        </mxCell>
        <mxCell id="v8qC128liEodUwgJ5zLA-36" value="Developer Tools" style="text;whiteSpace=wrap;html=1;" parent="v8qC128liEodUwgJ5zLA-15" vertex="1">
          <mxGeometry x="32.002156862745096" y="455.3450684931507" width="219.196862745098" height="28.153424657534252" as="geometry" />
        </mxCell>
        <mxCell id="v8qC128liEodUwgJ5zLA-64" style="edgeStyle=orthogonalEdgeStyle;rounded=0;orthogonalLoop=1;jettySize=auto;html=1;entryX=0;entryY=0.5;entryDx=0;entryDy=0;entryPerimeter=0;" parent="v8qC128liEodUwgJ5zLA-15" source="v8qC128liEodUwgJ5zLA-43" target="v8qC128liEodUwgJ5zLA-63" edge="1">
          <mxGeometry relative="1" as="geometry" />
        </mxCell>
        <mxCell id="v8qC128liEodUwgJ5zLA-43" value="EC2 - realizarPedido&lt;br&gt;- python&amp;nbsp;" style="outlineConnect=0;dashed=0;verticalLabelPosition=bottom;verticalAlign=top;align=center;html=1;shape=mxgraph.aws3.ec2;fillColor=#F58534;gradientColor=none;dashPattern=1 1;" parent="v8qC128liEodUwgJ5zLA-15" vertex="1">
          <mxGeometry x="368.64" y="82" width="59.23" height="72" as="geometry" />
        </mxCell>
        <mxCell id="v8qC128liEodUwgJ5zLA-63" value="DynamoDB - &lt;br&gt;Pedidos" style="outlineConnect=0;dashed=0;verticalLabelPosition=bottom;verticalAlign=top;align=center;html=1;shape=mxgraph.aws3.dynamo_db;fillColor=#2E73B8;gradientColor=none;" parent="v8qC128liEodUwgJ5zLA-15" vertex="1">
          <mxGeometry x="541.6674509803922" y="92.86794520547942" width="44.68398431372548" height="50.27397260273973" as="geometry" />
        </mxCell>
        <mxCell id="v8qC128liEodUwgJ5zLA-67" value="" style="outlineConnect=0;dashed=0;verticalLabelPosition=bottom;verticalAlign=top;align=center;html=1;shape=mxgraph.aws3.cloudwatch;fillColor=#759C3E;gradientColor=none;dashPattern=1 1;" parent="v8qC128liEodUwgJ5zLA-15" vertex="1">
          <mxGeometry x="174" y="475.17" width="42.41" height="53.83" as="geometry" />
        </mxCell>
        <mxCell id="v8qC128liEodUwgJ5zLA-23" value="Usuario [Descripción]" style="html=1;verticalLabelPosition=bottom;align=center;labelBackgroundColor=#ffffff;verticalAlign=top;strokeWidth=2;strokeColor=#0080F0;shadow=0;dashed=0;shape=mxgraph.ios7.icons.user;" parent="1" vertex="1">
          <mxGeometry x="41" y="227" width="62" height="62" as="geometry" />
        </mxCell>
        <mxCell id="v8qC128liEodUwgJ5zLA-52" style="edgeStyle=orthogonalEdgeStyle;rounded=0;orthogonalLoop=1;jettySize=auto;html=1;entryX=0.26;entryY=0.5;entryDx=0;entryDy=0;entryPerimeter=0;" parent="1" source="v8qC128liEodUwgJ5zLA-49" target="v8qC128liEodUwgJ5zLA-17" edge="1">
          <mxGeometry relative="1" as="geometry" />
        </mxCell>
        <mxCell id="v8qC128liEodUwgJ5zLA-49" value="" style="outlineConnect=0;dashed=0;verticalLabelPosition=bottom;verticalAlign=top;align=center;html=1;shape=mxgraph.aws3.mobile_client;fillColor=#D2D3D3;gradientColor=none;dashPattern=1 1;" parent="1" vertex="1">
          <mxGeometry x="115" y="172" width="40.5" height="63" as="geometry" />
        </mxCell>
        <mxCell id="v8qC128liEodUwgJ5zLA-53" style="edgeStyle=orthogonalEdgeStyle;rounded=0;orthogonalLoop=1;jettySize=auto;html=1;" parent="1" source="v8qC128liEodUwgJ5zLA-50" target="v8qC128liEodUwgJ5zLA-17" edge="1">
          <mxGeometry relative="1" as="geometry" />
        </mxCell>
        <mxCell id="v8qC128liEodUwgJ5zLA-50" value="" style="verticalLabelPosition=bottom;html=1;verticalAlign=top;align=center;strokeColor=none;fillColor=#00BEF2;shape=mxgraph.azure.laptop;pointerEvents=1;dashed=1;dashPattern=1 1;" parent="1" vertex="1">
          <mxGeometry x="108" y="246" width="60" height="36" as="geometry" />
        </mxCell>
        <mxCell id="v8qC128liEodUwgJ5zLA-8" value="IBM Cloud - Dalas" style="shape=mxgraph.ibm.box;prType=cloud;fontStyle=0;verticalAlign=top;align=left;spacingLeft=32;spacingTop=4;fillColor=none;rounded=0;whiteSpace=wrap;html=1;strokeColor=#4376BB;strokeWidth=3;dashed=0;container=1;spacing=-4;collapsible=0;expand=0;recursiveResize=0;" parent="1" vertex="1">
          <mxGeometry x="868" y="69" width="220" height="525" as="geometry" />
        </mxCell>
        <mxCell id="v8qC128liEodUwgJ5zLA-66" style="edgeStyle=orthogonalEdgeStyle;rounded=0;orthogonalLoop=1;jettySize=auto;html=1;" parent="v8qC128liEodUwgJ5zLA-8" source="v8qC128liEodUwgJ5zLA-55" target="v8qC128liEodUwgJ5zLA-58" edge="1">
          <mxGeometry relative="1" as="geometry" />
        </mxCell>
        <mxCell id="v8qC128liEodUwgJ5zLA-55" value="functions - aplicarPromoción &lt;br&gt;- node.js" style="aspect=fixed;perimeter=ellipsePerimeter;html=1;align=center;shadow=0;dashed=0;fontColor=#4277BB;labelBackgroundColor=#ffffff;fontSize=12;spacingTop=3;image;image=img/lib/ibm/miscellaneous/openwhisk.svg;dashPattern=1 1;" parent="v8qC128liEodUwgJ5zLA-8" vertex="1">
          <mxGeometry x="80" y="162" width="60" height="60" as="geometry" />
        </mxCell>
        <mxCell id="v8qC128liEodUwgJ5zLA-58" value="cloudant - &lt;br&gt;Promociones&amp;nbsp;&amp;nbsp;" style="aspect=fixed;perimeter=ellipsePerimeter;html=1;align=center;shadow=0;dashed=0;fontColor=#4277BB;labelBackgroundColor=#ffffff;fontSize=12;spacingTop=3;image;image=img/lib/ibm/miscellaneous/cloudant.svg;dashPattern=1 1;" parent="v8qC128liEodUwgJ5zLA-8" vertex="1">
          <mxGeometry x="80" y="340" width="60" height="60" as="geometry" />
        </mxCell>
        <mxCell id="v8qC128liEodUwgJ5zLA-65" style="edgeStyle=orthogonalEdgeStyle;rounded=0;orthogonalLoop=1;jettySize=auto;html=1;entryX=0;entryY=0.5;entryDx=0;entryDy=0;" parent="1" source="v8qC128liEodUwgJ5zLA-43" target="v8qC128liEodUwgJ5zLA-55" edge="1">
          <mxGeometry relative="1" as="geometry">
            <Array as="points">
              <mxPoint x="663" y="157" />
              <mxPoint x="663" y="259" />
            </Array>
          </mxGeometry>
        </mxCell>
        <mxCell id="5Attr23UrhzsccXN82fq-2" value="" style="dashed=0;html=1;shape=mxgraph.aws3.cloud;fillColor=#F58536;gradientColor=none;dashed=0;" parent="1" vertex="1">
          <mxGeometry x="190" y="1329" width="51.82" height="38.35" as="geometry" />
        </mxCell>
        <mxCell id="5Attr23UrhzsccXN82fq-3" value="US East (N. Virginia) [us-east-1]" style="text;whiteSpace=wrap;html=1;" parent="1" vertex="1">
          <mxGeometry x="244.80215686274508" y="1346.7550684931507" width="219.196862745098" height="28.153424657534252" as="geometry" />
        </mxCell>
        <mxCell id="5Attr23UrhzsccXN82fq-9" style="edgeStyle=orthogonalEdgeStyle;rounded=0;orthogonalLoop=1;jettySize=auto;html=1;entryX=0;entryY=0.5;entryDx=0;entryDy=0;entryPerimeter=0;exitX=0.92;exitY=0.5;exitDx=0;exitDy=0;exitPerimeter=0;" parent="1" source="5Attr23UrhzsccXN82fq-33" target="5Attr23UrhzsccXN82fq-48" edge="1">
          <mxGeometry relative="1" as="geometry">
            <mxPoint x="442.21729411764727" y="1431.65" as="sourcePoint" />
          </mxGeometry>
        </mxCell>
        <mxCell id="5Attr23UrhzsccXN82fq-22" value="" style="outlineConnect=0;dashed=0;verticalLabelPosition=bottom;verticalAlign=top;align=center;html=1;shape=mxgraph.aws3.ecs;fillColor=#F58534;gradientColor=none;" parent="1" vertex="1">
          <mxGeometry x="243" y="1435" width="19.38" height="21" as="geometry" />
        </mxCell>
        <mxCell id="5Attr23UrhzsccXN82fq-29" value="Usuario" style="html=1;verticalLabelPosition=bottom;align=center;labelBackgroundColor=#ffffff;verticalAlign=top;strokeWidth=2;strokeColor=#0080F0;shadow=0;dashed=0;shape=mxgraph.ios7.icons.user;" parent="1" vertex="1">
          <mxGeometry x="49" y="1517" width="62" height="62" as="geometry" />
        </mxCell>
        <mxCell id="5Attr23UrhzsccXN82fq-33" value="" style="verticalLabelPosition=bottom;html=1;verticalAlign=top;align=center;strokeColor=none;fillColor=#00BEF2;shape=mxgraph.azure.laptop;pointerEvents=1;dashed=1;dashPattern=1 1;" parent="1" vertex="1">
          <mxGeometry x="116" y="1536" width="60" height="36" as="geometry" />
        </mxCell>
        <UserObject label="Registry" id="5Attr23UrhzsccXN82fq-42">
          <mxCell style="outlineConnect=0;fontColor=#232F3E;gradientColor=none;strokeColor=#232F3E;fillColor=#ffffff;dashed=0;verticalLabelPosition=bottom;verticalAlign=top;align=center;html=1;fontSize=12;fontStyle=0;aspect=fixed;shape=mxgraph.aws4.resourceIcon;resIcon=mxgraph.aws4.registry;" parent="1" vertex="1">
            <mxGeometry x="322" y="1236" width="59.44" height="59.44" as="geometry" />
          </mxCell>
        </UserObject>
        <mxCell id="5Attr23UrhzsccXN82fq-46" value="" style="shape=image;verticalLabelPosition=bottom;labelBackgroundColor=#ffffff;verticalAlign=top;aspect=fixed;imageAspect=0;image=https://images.g2crowd.com/uploads/product/image/social_landscape/social_landscape_a827b5cf8c821fe5bdf33e41388d8e11/docker-hub.jpg;" parent="1" vertex="1">
          <mxGeometry x="331.65000000000003" y="1255.19" width="40.14" height="21.07" as="geometry" />
        </mxCell>
        <mxCell id="5Attr23UrhzsccXN82fq-53" style="edgeStyle=orthogonalEdgeStyle;rounded=0;orthogonalLoop=1;jettySize=auto;html=1;exitX=1;exitY=0;exitDx=0;exitDy=0;exitPerimeter=0;" parent="1" source="5Attr23UrhzsccXN82fq-48" edge="1">
          <mxGeometry relative="1" as="geometry">
            <mxPoint x="349" y="1320" as="targetPoint" />
            <Array as="points">
              <mxPoint x="349" y="1331" />
              <mxPoint x="349" y="1331" />
            </Array>
          </mxGeometry>
        </mxCell>
        <mxCell id="5Attr23UrhzsccXN82fq-60" style="edgeStyle=orthogonalEdgeStyle;rounded=0;orthogonalLoop=1;jettySize=auto;html=1;" parent="1" source="5Attr23UrhzsccXN82fq-48" target="5Attr23UrhzsccXN82fq-40" edge="1">
          <mxGeometry relative="1" as="geometry" />
        </mxCell>
        <mxCell id="5Attr23UrhzsccXN82fq-48" value="Front-end" style="outlineConnect=0;dashed=0;verticalLabelPosition=bottom;verticalAlign=top;align=center;html=1;shape=mxgraph.aws3.ec2_compute_container;fillColor=#F58534;gradientColor=none;" parent="1" vertex="1">
          <mxGeometry x="290.5" y="1537.75" width="60" height="34.5" as="geometry" />
        </mxCell>
        <mxCell id="5Attr23UrhzsccXN82fq-54" value="ECS Cluster" style="text;html=1;strokeColor=none;fillColor=none;align=center;verticalAlign=middle;whiteSpace=wrap;rounded=0;" parent="1" vertex="1">
          <mxGeometry x="262.38" y="1434" width="82" height="20" as="geometry" />
        </mxCell>
        <mxCell id="5Attr23UrhzsccXN82fq-59" value="ECS Container Instance" style="text;html=1;strokeColor=none;fillColor=none;align=center;verticalAlign=middle;whiteSpace=wrap;rounded=0;" parent="1" vertex="1">
          <mxGeometry x="252.5" y="1612" width="147" height="20" as="geometry" />
        </mxCell>
        <mxCell id="5Attr23UrhzsccXN82fq-61" value="" style="rounded=1;arcSize=10;dashed=0;fillColor=none;gradientColor=none;strokeWidth=2;" parent="1" vertex="1">
          <mxGeometry x="260" y="1488" width="135" height="150" as="geometry" />
        </mxCell>
        <mxCell id="5Attr23UrhzsccXN82fq-62" value="" style="dashed=0;html=1;shape=mxgraph.aws3.instance;fillColor=#F58536;gradientColor=none;dashed=0;" parent="1" vertex="1">
          <mxGeometry x="251" y="1470" width="34" height="33" as="geometry" />
        </mxCell>
      </root>
    </mxGraphModel>
  </diagram>
</mxfile>